<?xml version="1.0" standalone="no"?><!DOCTYPE svg PUBLIC "-//W3C//DTD SVG 1.1//EN" "http://www.w3.org/Graphics/SVG/1.1/DTD/svg11.dtd"><svg t="1599045102756" class="icon" viewBox="0 0 1024 1024" version="1.1" xmlns="http://www.w3.org/2000/svg" p-id="4838" xmlns:xlink="http://www.w3.org/1999/xlink" width="200" height="200"><defs><style type="text/css"></style></defs><path d="M611.249231 364.701538l-0.787693-3.544615c-0.393846 0-35.052308 8.270769-85.464615-33.476923l-2.363077 2.756923c36.627692 30.326154 64.984615 35.052308 79.163077 35.052308 5.513846 0.393846 9.058462-0.393846 9.452308-0.787693M300.504615 330.830769l-2.363077-2.756923C247.729231 369.821538 212.676923 361.550769 212.283077 361.156923l-0.787692 3.544615c0.393846 0 3.938462 0.787692 9.846153 0.787693 14.178462 0.393846 42.535385-4.332308 79.163077-34.658462" fill="#2c2c2c" p-id="4839"></path><path d="M472.615385 711.68c-8.664615-9.452308-16.935385-16.935385-24.024616-20.48-14.966154-7.483077-35.84-9.846154-58.683077-6.695385-13.784615 1.969231-30.326154 14.178462-42.141538 24.418462-131.938462-29.932308-230.006154-142.572308-230.006154-276.873846 0-114.609231 71.68-213.858462 174.867692-258.756923 10.633846 3.150769 15.36 4.726154 26.387693 9.058461 74.830769 27.569231 131.938462 73.649231 156.750769 110.670769 42.929231-12.209231 113.427692-7.483077 190.621538 16.541539 11.027692 3.544615 15.753846 5.907692 26.387693 9.452308 15.753846 34.658462 24.418462 72.861538 24.418461 112.64 0 139.421538-105.550769 255.212308-244.578461 280.024615z m118.153846 66.56c-0.393846 16.935385-11.421538 32.295385-19.298462 38.596923-9.452308 7.876923-24.024615 9.452308-29.932307 5.513846-1.969231-1.181538-2.363077-3.150769-1.575385-5.513846 1.181538-3.150769 2.756923-7.089231 4.726154-10.633846 6.695385-9.452308 10.633846-19.298462 10.633846-20.086154l-3.150769-1.575385c-0.393846 0.393846-5.907692 9.846154-10.633846 19.298462-3.938462 5.513846-9.058462 11.027692-15.36 13.784615-5.12 2.363077-10.24 2.363077-15.36 0-5.12-1.969231-8.664615-5.513846-10.24-10.633846-1.181538-3.938462-1.575385-8.664615-0.787693-12.996923 2.756923-9.846154 9.058462-26.387692 9.058462-26.781538l-3.150769-1.575385c-0.393846 0.787692-7.876923 14.178462-9.452308 27.569231-0.393846 1.969231-0.787692 3.938462-1.181539 5.12-0.787692 4.726154-3.150769 7.089231-6.695384 7.089231-8.270769 0-22.449231-11.421538-24.024616-22.449231-1.969231-10.633846-1.181538-42.535385 22.055385-58.289231 16.935385-11.815385 66.953846 4.332308 90.584615 24.418462 9.452308 8.270769 14.178462 17.723077 13.784616 29.144615z m-47.655385 74.436923c-7.483077 9.058462-19.298462 9.452308-34.264615 9.846154-6.301538 0.393846-13.784615 0.393846-21.267693 1.575385-7.089231 0.787692-11.815385 1.969231-14.966153 3.150769 3.150769-2.756923 6.695385-5.907692 10.633846-8.270769 11.027692-7.483077 22.449231-9.452308 22.843077-9.452308l-0.787693-3.544616c-0.393846 0-12.209231 2.363077-24.024615 10.24-6.301538 3.938462-11.815385 9.058462-16.935385 14.178462-1.969231 1.969231-3.938462 3.544615-5.907692 5.12-3.938462 2.363077-9.452308 5.12-18.116923 9.058462-18.116923 7.483077-31.901538-7.876923-46.473846-24.024616-7.876923-8.664615-15.36-17.329231-23.630769-21.661538-4.726154-2.363077-9.846154-3.544615-15.753847-3.544616-14.966154 0-32.295385 7.089231-47.261538 12.996923-8.664615 3.544615-16.147692 6.301538-21.267692 7.089231-8.270769 1.181538-12.209231-0.393846-12.996923-1.969231-0.393846-1.181538 0.787692-3.150769 2.756923-5.12 5.12-4.332308 9.452308-15.753846 14.572307-28.750769 2.363077-1.969231 3.544615-4.332308 3.15077-7.483077 0-0.393846 0.393846-0.787692 0.393846-1.575384 2.363077 1.969231 4.726154 3.544615 7.483077 4.726153 5.907692 2.756923 12.209231 2.756923 18.116923 0 6.301538-2.363077 10.24-6.695385 12.209231-12.603076 0.393846-1.181538 0.787692-1.969231 0.787692-3.15077 2.363077 3.544615 5.907692 4.332308 8.270769 4.332308 11.027692 0 25.6-13.390769 27.963077-25.6 2.363077-13.784615 0.787692-42.929231-20.48-59.864615 11.027692-10.24 28.750769-24.812308 42.535385-26.781539 21.267692-2.756923 41.353846-0.787692 54.744615 6.301539 8.664615 4.332308 19.692308 16.147692 31.901538 30.326153-16.935385 17.329231-18.116923 43.323077-16.147692 55.532308 1.969231 11.815385 16.935385 25.6 27.569231 25.6 2.363077 0 5.907692-0.787692 8.270769-4.332308 0.393846 1.181538 0.393846 1.969231 0.787692 3.15077 1.969231 5.907692 6.301538 10.24 12.209231 12.603077 5.907692 2.363077 12.209231 2.363077 18.116923 0 2.756923-1.181538 5.12-2.756923 7.483077-4.726154 0.393846 0.393846 0.393846 1.181538 0.787693 1.575384-0.393846 2.756923 0.787692 5.12 2.756923 7.089231 5.12 14.178462 6.695385 24.812308 3.938461 27.963077z m-53.169231 89.403077c4.332308 0.393846 8.270769 0.787692 12.209231 1.181538-5.513846 1.575385-13.784615 5.12-15.753846 12.209231l-0.393846 1.181539 15.36 8.664615 0.787692-0.787692c0.393846 0 21.267692-15.36 35.84-13.784616 25.206154 8.270769 44.504615 21.267692 55.532308 38.99077-15.36 3.544615-86.252308 16.935385-163.84 2.363077 0.393846-6.301538 2.363077-29.144615 4.726154-50.018462 11.421538 2.363077 34.658462 5.513846 54.350769-0.393846 0.787692 0.393846 0.787692 0.393846 1.181538 0.393846z m30.326154 4.332308c2.756923 0.393846 5.513846 1.181538 7.876923 1.96923-11.815385 2.756923-23.630769 10.633846-27.175384 12.996924l-10.633846-5.907693c3.150769-7.483077 17.329231-9.452308 17.723076-9.452307 3.544615-0.787692 7.876923-0.393846 12.209231 0.393846z m-109.489231 46.867692c-77.587692 14.572308-148.873846 0.393846-164.627692-3.150769 13.784615-21.267692 37.021538-33.083077 58.289231-39.384616 14.572308-1.969231 36.233846 13.390769 36.233846 13.784616l0.787692 0.787692 15.36-8.664615-0.393846-1.181539c-1.575385-6.695385-8.664615-10.24-14.178461-11.815384 5.907692-0.393846 9.846154-0.787692 9.846154-0.787693h2.756923l-0.787693-2.363077c12.996923 1.181538 31.113846 1.181538 49.624616-2.756923 2.756923 12.996923 5.12 24.418462 7.08923 55.532308zM326.892308 945.230769c2.756923-0.393846 5.513846-0.393846 8.270769 0 4.332308 0.393846 14.966154 3.150769 17.723077 9.452308l-10.633846 5.907692c-3.544615-2.363077-15.36-10.24-27.175385-12.996923 3.938462-0.787692 8.270769-1.969231 11.815385-2.363077z m-68.923077-134.301538c-7.483077-6.301538-18.904615-21.661538-19.298462-38.596923 0-11.027692 4.726154-20.873846 13.784616-28.75077 18.116923-15.36 51.593846-28.356923 73.64923-28.356923 6.695385 0 12.603077 1.181538 16.541539 3.938462 23.236923 16.147692 23.630769 47.655385 22.055384 58.289231-1.969231 11.027692-15.753846 22.449231-24.024615 22.44923-3.938462 0-5.907692-2.363077-6.695385-7.08923-0.393846-1.181538-0.787692-3.150769-1.181538-5.12-1.575385-13.784615-9.058462-26.781538-9.452308-27.569231l-3.150769 1.575385c0 0.393846 6.301538 16.935385 9.058462 26.781538 0.393846 4.332308 0.393846 9.058462-0.787693 12.996923-1.575385 5.12-5.12 8.270769-10.24 10.633846-5.12 1.969231-10.24 1.969231-15.36 0-5.907692-2.756923-11.027692-7.876923-15.36-13.784615-4.726154-9.846154-10.24-18.904615-10.633846-19.298462l-3.150769 1.575385c0.393846 0.787692 3.938462 10.633846 10.633846 20.086154 1.969231 3.544615 3.544615 7.483077 4.726154 10.633846 0.787692 2.363077 0.393846 4.332308-1.575385 5.513846-5.12 3.544615-20.086154 1.969231-29.538461-5.907692z m307.2-757.366154L130.756923 3.544615l3.150769 2.363077h0.787693L314.289231 114.215385l-18.510769 49.624615C186.683077 208.738462 110.276923 311.926154 110.276923 432.049231c0 131.938462 92.16 243.396923 218.584615 279.630769-23.630769-0.787692-59.076923 12.603077-78.375384 29.144615-10.24 8.664615-15.36 19.298462-15.36 31.507693 0.393846 16.935385 10.633846 33.476923 20.48 41.353846 7.089231 5.513846 15.753846 8.270769 23.236923 8.270769h1.969231c-3.544615 9.058462-7.089231 17.329231-10.24 20.086154-5.12 4.332308-6.695385 9.452308-4.726154 13.784615 2.363077 5.513846 10.24 7.876923 20.873846 6.301539 5.907692-0.787692 13.784615-3.938462 22.843077-7.483077 3.544615-1.575385 7.089231-2.756923 10.633846-4.332308 0 4.726154-0.787692 8.664615-1.575385 13.784616 0 0 3.150769 0.787692 8.664616 1.96923 1.575385 24.418462 3.938462 57.501538 8.270769 71.286154 0 0 3.150769 0.787692 8.270769 1.181539-4.726154 0.393846-11.421538 1.181538-18.904615 2.363077-7.089231 0.787692-14.178462 2.756923-18.116923 4.332307-23.630769 6.695385-50.412308 19.298462-65.772308 44.504616l1.575385 1.181538-0.393846 1.575385-1.181539 18.116923s53.563077 14.966154 124.061539 8.270769c1.181538-1.969231 3.150769-4.332308 3.938461-3.938462 0.787692 0.393846 1.575385 1.969231 2.363077 3.544616 12.603077-1.575385 25.993846-3.544615 39.384615-6.695385l0.393847-15.36h0.787692l1.575385-0.393846v-1.575385c-1.969231-32.295385-4.332308-44.504615-6.695385-57.895384h0.393846L409.6 894.030769s6.695385-1.575385 14.572308-1.181538c1.969231 0.393846 4.332308 0.787692 6.301538 0.787692H431.655385l-3.938462 47.261539s1.181538 0.393846 3.544615 0.787692c-2.756923 24.024615-5.12 51.593846-5.12 51.987692v1.575385l1.575385 0.393846h0.393846v16.147692c12.603077 2.756923 24.812308 5.12 36.627693 6.301539 1.181538-1.181538 1.969231-3.544615 2.756923-3.938462 0.787692-0.393846 3.150769 2.756923 4.332307 4.726154 71.68 7.483077 126.424615-7.876923 126.424616-7.876923l-1.181539-18.116923h0.393846l-0.393846-1.575385 1.575385-1.181538c-11.815385-19.298462-31.901538-33.476923-59.076923-42.535385-0.393846 0-9.058462-3.150769-18.510769-4.726154-7.483077-1.575385-15.36-2.756923-23.63077-3.544615 3.544615-1.575385 7.089231-3.544615 10.24-6.301539l7.089231-63.015384c13.784615-0.393846 25.206154-1.969231 33.870769-12.209231 5.12-5.907692 3.938462-16.935385-0.393846-29.932308h2.363077c7.483077 0 16.541538-2.756923 23.236923-8.270769 9.846154-7.876923 20.48-24.418462 20.48-41.353846 0-12.209231-5.12-22.843077-14.966154-31.507692-14.572308-12.603077-38.596923-23.236923-59.470769-27.569231l-7.089231-9.452308c122.88-38.203077 211.495385-148.086154 211.495385-277.661538 0-43.716923-10.24-85.070769-28.356923-122.092308l17.723077-48.836923 183.532307 28.750769c1.575385 12.209231 4.332308 55.532308-25.6 103.187693-18.510769 29.144615-44.898462 53.169231-71.286153 74.436923-59.076923 46.08-57.501538 107.126154-29.144616 129.575384v0.393846c-1.575385 3.150769-1.181538 7.089231-1.181538 7.089231 1.575385 11.027692 11.815385 10.24 11.815384 10.24s-0.393846 22.843077 7.483077 28.750769c8.270769 5.907692 8.664615 16.935385 10.24 26.387693 3.938462 27.175385 23.630769 29.538462 23.63077 29.538461-5.513846-7.483077-1.969231-18.116923-1.969231-18.116923-2.756923 26.387692 21.267692 21.267692 21.267692 21.267692-7.876923-0.393846-11.421538-22.055385 0.393846-40.566153 16.541538-25.6 8.664615-50.806154-13.390769-60.258462-22.055385-9.452308-38.203077-0.787692-38.203077-0.787692s-1.181538-6.695385-9.846154-7.876923c0 0-3.150769-0.393846-5.12 0.393846-26.781538-18.904615-29.144615-75.618462 26.387693-122.092308 0 0 52.381538-40.172308 76.406153-78.375384 31.901538-50.806154 25.6-96.098462 24.812308-101.218462l1.575385 0.393846 1.181538 0.787692 5.513846 0.393847-346.978461-239.852308z" fill="#2c2c2c" p-id="4840"></path><path d="M355.249231 467.101538l-156.750769 27.963077c-3.150769 0.393846-5.513846 3.544615-4.726154 7.089231 0.393846 2.756923 3.150769 5.12 5.907692 5.12h1.181538l156.75077-27.963077c3.150769-0.393846 5.513846-3.544615 4.726154-7.089231-0.787692-3.544615-3.938462-5.907692-7.089231-5.12m-9.846154-13.784615c-0.393846-3.150769-3.544615-5.513846-7.089231-4.726154l-147.298461 25.993846c-3.150769 0.393846-5.513846 3.544615-4.726154 7.089231 0.393846 2.756923 3.150769 5.12 5.907692 5.12h1.181539l147.298461-25.993846c3.150769-1.181538 5.513846-4.332308 4.726154-7.483077m-144.147692 11.027692h1.181538l147.298462-25.6c3.150769-0.393846 5.513846-3.544615 4.726153-7.08923-0.393846-3.150769-3.544615-5.513846-7.08923-4.726154l-147.298462 25.6c-3.150769 0.393846-5.513846 3.544615-4.726154 7.089231 0.393846 2.756923 2.756923 4.726154 5.907693 4.726153m421.80923 44.11077L496.246154 465.526154c-3.150769-1.181538-6.695385 0.787692-7.483077 3.938461-1.181538 3.150769 0.787692 6.695385 3.938461 7.483077l126.818462 42.929231c0.787692 0.393846 1.181538 0.393846 1.969231 0.393846 2.363077 0 4.726154-1.575385 5.513846-3.938461 0.787692-3.544615-1.181538-6.695385-3.938462-7.876923m8.27077-16.541539L512 452.135385c-3.150769-1.181538-6.695385 0.787692-7.483077 3.938461-1.181538 3.150769 0.787692 6.695385 3.938462 7.483077l119.335384 39.778462c0.787692 0.393846 1.181538 0.393846 1.969231 0.393846 2.363077 0 4.726154-1.575385 5.513846-3.938462 0.787692-3.150769-0.787692-6.695385-3.938461-7.876923m-128-47.655384l119.335384 39.778461c0.787692 0.393846 1.181538 0.393846 1.969231 0.393846 2.363077 0 4.726154-1.575385 5.513846-3.938461 1.181538-3.150769-0.787692-6.695385-3.938461-7.483077L506.88 433.230769c-3.150769-1.181538-6.695385 0.787692-7.483077 3.938462-0.787692 2.756923 0.787692 6.301538 3.938462 7.089231m-64.196923 171.323076c-7.876923-1.181538-16.147692 1.575385-24.418462 7.876924-3.938462-2.363077-14.572308-8.270769-25.206154-5.513847-6.695385 1.969231-12.209231 7.483077-15.36 16.147693-0.393846 1.181538 0 2.363077 1.181539 3.150769h0.787692c0.787692 0 1.969231-0.393846 1.969231-1.575385 2.756923-7.089231 7.089231-11.815385 12.603077-13.390769 10.633846-3.150769 22.449231 5.513846 22.843077 5.513846 0.787692 0.787692 1.969231 0.393846 2.756923 0 7.876923-6.301538 15.36-9.058462 22.055384-7.876923 9.058462 1.181538 14.572308 8.664615 14.572308 8.664616 0.787692 1.181538 1.969231 1.181538 3.150769 0.393846 1.181538-0.787692 1.181538-2.363077 0.393846-3.15077 0 0-5.907692-8.664615-17.32923-10.24m-20.086154 97.673847l-3.15077 1.96923c9.058462 14.572308 32.295385 53.563077 33.87077 59.076923l1.96923 6.695385 3.544616-0.787692-1.969231-6.695385c-1.969231-7.089231-30.72-54.744615-34.264615-60.258461" fill="#2c2c2c" p-id="4841"></path></svg>