<?xml version="1.0" standalone="no"?><!DOCTYPE svg PUBLIC "-//W3C//DTD SVG 1.1//EN" "http://www.w3.org/Graphics/SVG/1.1/DTD/svg11.dtd"><svg t="1624949349297" class="icon" viewBox="0 0 1368 1024" version="1.1" xmlns="http://www.w3.org/2000/svg" p-id="8902" xmlns:xlink="http://www.w3.org/1999/xlink" width="171" height="128"><defs><style type="text/css"></style></defs><path d="M414.943515 0s60.182647 41.001628 43.993163 68.805307S244.77796 489.731893 0 667.112327c0 0 227.180695-142.185903 359.160184-359.160185 0 0 89.57008-118.781541 107.167346-149.576755s45.400944-52.791796 43.993163-67.573498-35.194531-87.986326-95.377178-90.801889z" p-id="8903"></path><path d="M384.148301 249.177276s19.005046-14.60573 17.597265 39.593847-24.988117 343.146673-13.197949 463.511968 7.390851 123.180857-5.807097 115.790005-49.976233 20.5888-57.191112 33.786749 43.993163 5.807098 62.998209 33.610777 73.380596 61.590428 83.58701 77.779913 23.404363 13.197949 54.199577-2.991536-1.407781-21.996582-20.412827-36.602311-83.58701-68.98128-90.977862-95.377178-13.197949-146.58522-11.790168-228.764449 11.790168-260.967444 20.588801-315.167021a449.434155 449.434155 0 0 1 36.602312-115.965978c7.390851-14.60573 8.798633-58.598893-1.407782-68.805307s-58.598893 70.389061-74.788377 99.600521zM598.307019 167.17402s108.399154 43.993163 152.392318 39.593847 143.769657-38.186066 212.750937-58.774866S1045.45353 124.588638 1073.433182 127.580173s68.805307 8.798633 71.796842-20.5888S1076.248744 70.389061 1051.4366 60.006675s-41.177601 1.583754-68.98128 23.580335S761.081723 193.569918 598.307019 167.17402z" p-id="8904"></path><path d="M436.940097 557.129419a242.314343 242.314343 0 0 0 139.370341 14.781702c73.204624-16.189484 190.578383-55.783331 356.344622-80.771447s240.378644-30.795214 285.95556-2.815563 87.986326 54.199577 103.999838 65.989745 52.791796 5.807098 43.993163-17.597265-39.593847-36.778284-62.998209-52.791796-55.783331-26.395898-87.986327-49.976233-33.786749-33.610777-60.182647-14.60573-7.214879 33.786749-169.989583 45.400944-434.124534 96.608986-548.506758 92.385643z" p-id="8905"></path></svg>